<?xml version="1.0" encoding="UTF-8"?>
<svg width="40px" height="40px" viewBox="0 0 40 40" version="1.1" xmlns="http://www.w3.org/2000/svg" xmlns:xlink="http://www.w3.org/1999/xlink">
    <!-- Generator: Sketch 49.2 (51160) - http://www.bohemiancoding.com/sketch -->
    <title>noun_138573_cc</title>
    <desc>Created with Sketch.</desc>
    <defs></defs>
    <g id="Page-1" stroke="none" stroke-width="1" fill="none" fill-rule="evenodd">
        <g id="noun_138573_cc" fill="#000000" fill-rule="nonzero">
            <g id="Group">
                <path d="M35.9,39.3 L23.9,27.3 C23,26.4 23,24.8 23.9,23.9 C24.8,23 26.4,23 27.3,23.9 L39.3,35.9 C40.2,36.8 40.2,38.4 39.3,39.3 C38.3,40.2 36.8,40.2 35.9,39.3 Z" id="Shape"></path>
                <path d="M4.7,4.7 C-1.5,10.9 -1.5,21 4.7,27.2 C10.9,33.4 21,33.4 27.2,27.2 C33.4,21 33.4,10.9 27.2,4.7 C21,-1.5 10.9,-1.6 4.7,4.7 Z M23.8,24 C19.5,28.3 12.4,28.3 8.1,24 C3.8,19.7 3.8,12.6 8.1,8.3 C12.4,4 19.5,4 23.8,8.3 C28.1,12.6 28.1,19.6 23.8,24 Z" id="Shape"></path>
            </g>
        </g>
    </g>
</svg>